<svg width="25" height="25" viewBox="0 0 25 25" fill="none" xmlns="http://www.w3.org/2000/svg">
<path d="M3.28963 11.515C3.40773 11.6039 3.5422 11.6686 3.68533 11.7055C3.82847 11.7424 3.97748 11.7507 4.12383 11.73C4.27019 11.7093 4.41103 11.6599 4.5383 11.5847C4.66557 11.5095 4.77678 11.41 4.86556 11.2918C5.28471 10.7328 5.82828 10.279 6.45322 9.96647C7.07816 9.65393 7.7673 9.49122 8.46603 9.49122C9.16477 9.49122 9.8539 9.65393 10.4788 9.96647C11.1038 10.279 11.6474 10.7328 12.0665 11.2918C12.2457 11.5304 12.5122 11.688 12.8076 11.73C13.103 11.772 13.4029 11.695 13.6415 11.5159C13.7259 11.4519 13.8009 11.3765 13.8646 11.2918C14.2838 10.7328 14.8273 10.279 15.4523 9.96647C16.0772 9.65393 16.7664 9.49122 17.4651 9.49122C18.1638 9.49122 18.853 9.65393 19.4779 9.96647C20.1028 10.279 20.6464 10.7328 21.0656 11.2918C21.1535 11.4121 21.2644 11.5137 21.3918 11.5908C21.5193 11.6678 21.6608 11.7188 21.8082 11.7407C21.9555 11.7626 22.1057 11.7551 22.2501 11.7185C22.3945 11.6819 22.5302 11.617 22.6493 11.5276C22.7684 11.4381 22.8686 11.3259 22.944 11.1975C23.0194 11.069 23.0686 10.9268 23.0886 10.7792C23.1086 10.6316 23.0991 10.4815 23.0607 10.3376C23.0222 10.1937 22.9556 10.0589 22.8646 9.9409C22.2388 9.10299 21.4268 8.42195 20.4928 7.95153C20.9015 7.39248 21.1474 6.73115 21.2033 6.04087C21.2592 5.35059 21.1229 4.65832 20.8094 4.04079C20.4959 3.42326 20.0175 2.90461 19.4273 2.54231C18.8371 2.18002 18.1581 1.98824 17.4656 1.98824C16.773 1.98824 16.094 2.18002 15.5038 2.54231C14.9136 2.90461 14.4352 3.42326 14.1217 4.04079C13.8083 4.65832 13.6719 5.35059 13.7278 6.04087C13.7837 6.73115 14.0296 7.39248 14.4384 7.95153C13.9045 8.21925 13.4092 8.5576 12.9656 8.95747C12.522 8.55727 12.0266 8.2186 11.4928 7.95059C11.9015 7.39154 12.1474 6.73022 12.2033 6.03994C12.2592 5.34966 12.1229 4.65738 11.8094 4.03985C11.4959 3.42233 11.0175 2.90367 10.4273 2.54137C9.83712 2.17908 9.1581 1.9873 8.46556 1.9873C7.77302 1.9873 7.09401 2.17908 6.5038 2.54137C5.91358 2.90367 5.43522 3.42233 5.12174 4.03985C4.80826 4.65738 4.67191 5.34966 4.7278 6.03994C4.78368 6.73022 5.02963 7.39154 5.43838 7.95059C4.50431 8.42101 3.69233 9.10205 3.0665 9.93997C2.88728 10.1784 2.8101 10.4783 2.85195 10.7737C2.89379 11.069 3.05122 11.3357 3.28963 11.515ZM17.4656 4.2409C17.7622 4.2409 18.0522 4.32888 18.2989 4.4937C18.5456 4.65852 18.7379 4.89279 18.8514 5.16688C18.9649 5.44097 18.9946 5.74257 18.9367 6.03354C18.8789 6.32451 18.736 6.59178 18.5262 6.80156C18.3164 7.01134 18.0492 7.1542 17.7582 7.21208C17.4672 7.26996 17.1656 7.24025 16.8915 7.12672C16.6174 7.01319 16.3832 6.82093 16.2184 6.57426C16.0535 6.32758 15.9656 6.03758 15.9656 5.7409C15.9656 5.34308 16.1236 4.96155 16.4049 4.68024C16.6862 4.39894 17.0677 4.2409 17.4656 4.2409ZM8.46556 4.2409C8.76224 4.2409 9.05225 4.32888 9.29892 4.4937C9.54559 4.65852 9.73785 4.89279 9.85138 5.16688C9.96491 5.44097 9.99462 5.74257 9.93674 6.03354C9.87886 6.32451 9.736 6.59178 9.52622 6.80156C9.31644 7.01134 9.04917 7.1542 8.7582 7.21208C8.46723 7.26996 8.16563 7.24025 7.89154 7.12672C7.61745 7.01319 7.38318 6.82093 7.21836 6.57426C7.05354 6.32758 6.96556 6.03758 6.96556 5.7409C6.96556 5.34308 7.1236 4.96155 7.4049 4.68024C7.68621 4.39894 8.06774 4.2409 8.46556 4.2409ZM20.4928 18.4506C20.9015 17.8915 21.1474 17.2302 21.2033 16.5399C21.2592 15.8497 21.1229 15.1574 20.8094 14.5399C20.4959 13.9223 20.0175 13.4037 19.4273 13.0414C18.8371 12.6791 18.1581 12.4873 17.4656 12.4873C16.773 12.4873 16.094 12.6791 15.5038 13.0414C14.9136 13.4037 14.4352 13.9223 14.1217 14.5399C13.8083 15.1574 13.6719 15.8497 13.7278 16.5399C13.7837 17.2302 14.0296 17.8915 14.4384 18.4506C13.9047 18.7186 13.4094 19.0569 12.9656 19.4565C12.5218 19.0569 12.0264 18.7186 11.4928 18.4506C11.9015 17.8915 12.1474 17.2302 12.2033 16.5399C12.2592 15.8497 12.1229 15.1574 11.8094 14.5399C11.4959 13.9223 11.0175 13.4037 10.4273 13.0414C9.83712 12.6791 9.1581 12.4873 8.46556 12.4873C7.77302 12.4873 7.09401 12.6791 6.5038 13.0414C5.91358 13.4037 5.43522 13.9223 5.12174 14.5399C4.80826 15.1574 4.67191 15.8497 4.7278 16.5399C4.78368 17.2302 5.02963 17.8915 5.43838 18.4506C4.50431 18.921 3.69233 19.602 3.0665 20.44C2.88723 20.6785 2.81008 20.9785 2.85201 21.274C2.89394 21.5695 3.05152 21.8362 3.29009 22.0154C3.52867 22.1947 3.82868 22.2719 4.12414 22.2299C4.41959 22.188 4.68629 22.0304 4.86556 21.7918C5.28471 21.2328 5.82828 20.779 6.45322 20.4665C7.07816 20.1539 7.7673 19.9912 8.46603 19.9912C9.16477 19.9912 9.8539 20.1539 10.4788 20.4665C11.1038 20.779 11.6474 21.2328 12.0665 21.7918C12.2457 22.0304 12.5122 22.188 12.8076 22.23C13.103 22.272 13.4029 22.195 13.6415 22.0159C13.7259 21.9519 13.8009 21.8765 13.8646 21.7918C14.2838 21.2328 14.8273 20.779 15.4523 20.4665C16.0772 20.1539 16.7664 19.9912 17.4651 19.9912C18.1638 19.9912 18.853 20.1539 19.4779 20.4665C20.1028 20.779 20.6464 21.2328 21.0656 21.7918C21.1535 21.9121 21.2644 22.0137 21.3918 22.0908C21.5193 22.1678 21.6608 22.2188 21.8082 22.2407C21.9555 22.2626 22.1057 22.2551 22.2501 22.2185C22.3945 22.1819 22.5302 22.117 22.6493 22.0276C22.7684 21.9381 22.8686 21.8259 22.944 21.6975C23.0194 21.569 23.0686 21.4268 23.0886 21.2792C23.1086 21.1316 23.0991 20.9815 23.0607 20.8376C23.0222 20.6937 22.9556 20.5589 22.8646 20.4409C22.2391 19.6024 21.4271 18.921 20.4928 18.4506ZM8.46556 14.7409C8.76224 14.7409 9.05225 14.8289 9.29892 14.9937C9.54559 15.1585 9.73785 15.3928 9.85138 15.6669C9.96491 15.941 9.99462 16.2426 9.93674 16.5335C9.87886 16.8245 9.736 17.0918 9.52622 17.3016C9.31644 17.5113 9.04917 17.6542 8.7582 17.7121C8.46723 17.77 8.16563 17.7403 7.89154 17.6267C7.61745 17.5132 7.38318 17.3209 7.21836 17.0743C7.05354 16.8276 6.96556 16.5376 6.96556 16.2409C6.96556 15.8431 7.1236 15.4615 7.4049 15.1802C7.68621 14.8989 8.06774 14.7409 8.46556 14.7409ZM17.4656 14.7409C17.7622 14.7409 18.0522 14.8289 18.2989 14.9937C18.5456 15.1585 18.7379 15.3928 18.8514 15.6669C18.9649 15.941 18.9946 16.2426 18.9367 16.5335C18.8789 16.8245 18.736 17.0918 18.5262 17.3016C18.3164 17.5113 18.0492 17.6542 17.7582 17.7121C17.4672 17.77 17.1656 17.7403 16.8915 17.6267C16.6174 17.5132 16.3832 17.3209 16.2184 17.0743C16.0535 16.8276 15.9656 16.5376 15.9656 16.2409C15.9656 15.8431 16.1236 15.4615 16.4049 15.1802C16.6862 14.8989 17.0677 14.7409 17.4656 14.7409Z" fill="url(#paint0_linear_1613_803)"/>
<defs>
<linearGradient id="paint0_linear_1613_803" x1="2.84082" y1="12.1201" x2="23.0988" y2="12.1201" gradientUnits="userSpaceOnUse">
<stop stop-color="#AD6AFF"/>
<stop offset="1" stop-color="#12DB88"/>
</linearGradient>
</defs>
</svg>
